HIERARCHY
ROOT Hips
{
  OFFSET 5.72205e-005 65.662 3.42586
  CHANNELS 6 Xposition Yposition Zposition Zrotation Xrotation Yrotation
  JOINT Chest
  {
    OFFSET 0 8.7983 -4.7612
    CHANNELS 6 Xposition Yposition Zposition Zrotation Xrotation Yrotation
    JOINT Chest2
    {
      OFFSET 0 8.0291 0.4195
      CHANNELS 6 Xposition Yposition Zposition Zrotation Xrotation Yrotation
      JOINT Chest3
      {
        OFFSET 0 9.9351 -2.2114
        CHANNELS 6 Xposition Yposition Zposition Zrotation Xrotation Yrotation
        JOINT Neck
        {
          OFFSET 0 22.3885 -0.4656
          CHANNELS 6 Xposition Yposition Zposition Zrotation Xrotation Yrotation
          JOINT Head
          {
            OFFSET -0.0001 12.643 3.4389
            CHANNELS 6 Xposition Yposition Zposition Zrotation Xrotation Yrotation
            End Site
            {
              OFFSET 0.0001 17.6655 0.5274
            }
          }
        }
        JOINT LeftCollar
        {
          OFFSET 2.2603 21.606 7.4023
          CHANNELS 6 Xposition Yposition Zposition Zrotation Xrotation Yrotation
          JOINT LeftShoulder
          {
            OFFSET 13.5163 -1.1332 -5.0146
            CHANNELS 6 Xposition Yposition Zposition Zrotation Xrotation Yrotation
            JOINT LeftElbow
            {
              OFFSET -0.0995 -28.05 -0.2431
              CHANNELS 6 Xposition Yposition Zposition Zrotation Xrotation Yrotation
              JOINT LeftWrist
              {
                OFFSET 0.0679 -23.3996 -0.1402
                CHANNELS 6 Xposition Yposition Zposition Zrotation Xrotation Yrotation
                JOINT LeftFinger1
                {
                  OFFSET 0.7932 -9.069 2.5189
                  CHANNELS 6 Xposition Yposition Zposition Zrotation Xrotation Yrotation
                  JOINT LeftFinger11
                  {
                    OFFSET -0.8272 -3.3923 0.5977
                    CHANNELS 6 Xposition Yposition Zposition Zrotation Xrotation Yrotation
                    JOINT LeftFinger12
                    {
                      OFFSET -0.5649 -2.3158 0.4082
                      CHANNELS 6 Xposition Yposition Zposition Zrotation Xrotation Yrotation
                      End Site
                      {
                        OFFSET -0.4919 -1.6479 0.2673
                      }
                    }
                  }
                }
                JOINT LeftFinger2
                {
                  OFFSET 0.9159 -9.2044 0.2193
                  CHANNELS 6 Xposition Yposition Zposition Zrotation Xrotation Yrotation
                  JOINT LeftFinger21
                  {
                    OFFSET 0.0117 -4.1944 -0.0248
                    CHANNELS 6 Xposition Yposition Zposition Zrotation Xrotation Yrotation
                    JOINT LeftFinger22
                    {
                      OFFSET 0.0071 -2.3249 -0.0142
                      CHANNELS 6 Xposition Yposition Zposition Zrotation Xrotation Yrotation
                      End Site
                      {
                        OFFSET -0.1475 -2.0882 0.0028
                      }
                    }
                  }
                }
                JOINT LeftFinger3
                {
                  OFFSET 0.6113 -8.7231 -2.0637
                  CHANNELS 6 Xposition Yposition Zposition Zrotation Xrotation Yrotation
                  JOINT LeftFinger31
                  {
                    OFFSET -0.1927 -3.8059 -0.2383
                    CHANNELS 6 Xposition Yposition Zposition Zrotation Xrotation Yrotation
                    JOINT LeftFinger32
                    {
                      OFFSET -0.1091 -2.1688 -0.1362
                      CHANNELS 6 Xposition Yposition Zposition Zrotation Xrotation Yrotation
                      End Site
                      {
                        OFFSET -0.2358 -1.9176 -0.0906
                      }
                    }
                  }
                }
                JOINT LeftFinger4
                {
                  OFFSET -0.6151 -8.0947 -3.5641
                  CHANNELS 6 Xposition Yposition Zposition Zrotation Xrotation Yrotation
                  JOINT LeftFinger41
                  {
                    OFFSET -0.4882 -2.341 -0.6462
                    CHANNELS 6 Xposition Yposition Zposition Zrotation Xrotation Yrotation
                    JOINT LeftFinger42
                    {
                      OFFSET -0.3575 -1.7167 -0.4742
                      CHANNELS 6 Xposition Yposition Zposition Zrotation Xrotation Yrotation
                      End Site
                      {
                        OFFSET -0.4187 -1.5237 -0.3496
                      }
                    }
                  }
                }
                JOINT LeftFinger0
                {
                  OFFSET -1.42 -1.8761 1.4223
                  CHANNELS 6 Xposition Yposition Zposition Zrotation Xrotation Yrotation
                  JOINT LeftFinger01
                  {
                    OFFSET -1.1471 -3.4929 2.6334
                    CHANNELS 6 Xposition Yposition Zposition Zrotation Xrotation Yrotation
                    JOINT LeftFinger02
                    {
                      OFFSET -0.823 -2.3 1.6571
                      CHANNELS 6 Xposition Yposition Zposition Zrotation Xrotation Yrotation
                      End Site
                      {
                        OFFSET -0.5822 -1.6914 1.1582
                      }
                    }
                  }
                }
              }
            }
          }
        }
        JOINT RightCollar
        {
          OFFSET -2.2603 21.606 7.4023
          CHANNELS 6 Xposition Yposition Zposition Zrotation Xrotation Yrotation
          JOINT RightShoulder
          {
            OFFSET -13.5187 -1.1334 -5.0155
            CHANNELS 6 Xposition Yposition Zposition Zrotation Xrotation Yrotation
            JOINT RightElbow
            {
              OFFSET 0.0994 -28.0499 -0.2431
              CHANNELS 6 Xposition Yposition Zposition Zrotation Xrotation Yrotation
              JOINT RightWrist
              {
                OFFSET -0.0679 -23.3996 -0.1402
                CHANNELS 6 Xposition Yposition Zposition Zrotation Xrotation Yrotation
                JOINT RightFinger1
                {
                  OFFSET -0.7932 -9.0691 2.5189
                  CHANNELS 6 Xposition Yposition Zposition Zrotation Xrotation Yrotation
                  JOINT RightFinger11
                  {
                    OFFSET 0.8272 -3.3923 0.5977
                    CHANNELS 6 Xposition Yposition Zposition Zrotation Xrotation Yrotation
                    JOINT RightFinger12
                    {
                      OFFSET 0.565 -2.3158 0.4082
                      CHANNELS 6 Xposition Yposition Zposition Zrotation Xrotation Yrotation
                      End Site
                      {
                        OFFSET 0.4919 -1.6479 0.2673
                      }
                    }
                  }
                }
                JOINT RightFinger2
                {
                  OFFSET -0.916 -9.2044 0.2193
                  CHANNELS 6 Xposition Yposition Zposition Zrotation Xrotation Yrotation
                  JOINT RightFinger21
                  {
                    OFFSET -0.0117 -4.1944 -0.0248
                    CHANNELS 6 Xposition Yposition Zposition Zrotation Xrotation Yrotation
                    JOINT RightFinger22
                    {
                      OFFSET -0.0071 -2.3249 -0.0142
                      CHANNELS 6 Xposition Yposition Zposition Zrotation Xrotation Yrotation
                      End Site
                      {
                        OFFSET 0.1475 -2.0882 0.0028
                      }
                    }
                  }
                }
                JOINT RightFinger3
                {
                  OFFSET -0.6113 -8.7231 -2.0637
                  CHANNELS 6 Xposition Yposition Zposition Zrotation Xrotation Yrotation
                  JOINT RightFinger31
                  {
                    OFFSET 0.1927 -3.8059 -0.2383
                    CHANNELS 6 Xposition Yposition Zposition Zrotation Xrotation Yrotation
                    JOINT RightFinger32
                    {
                      OFFSET 0.1091 -2.1688 -0.1362
                      CHANNELS 6 Xposition Yposition Zposition Zrotation Xrotation Yrotation
                      End Site
                      {
                        OFFSET 0.2358 -1.9176 -0.0906
                      }
                    }
                  }
                }
                JOINT RightFinger4
                {
                  OFFSET 0.6151 -8.0947 -3.564
                  CHANNELS 6 Xposition Yposition Zposition Zrotation Xrotation Yrotation
                  JOINT RightFinger41
                  {
                    OFFSET 0.4882 -2.341 -0.6462
                    CHANNELS 6 Xposition Yposition Zposition Zrotation Xrotation Yrotation
                    JOINT RightFinger42
                    {
                      OFFSET 0.3574 -1.7166 -0.4742
                      CHANNELS 6 Xposition Yposition Zposition Zrotation Xrotation Yrotation
                      End Site
                      {
                        OFFSET 0.4187 -1.5237 -0.3496
                      }
                    }
                  }
                }
                JOINT RightFinger0
                {
                  OFFSET 1.4199 -1.8761 1.4221
                  CHANNELS 6 Xposition Yposition Zposition Zrotation Xrotation Yrotation
                  JOINT RightFinger01
                  {
                    OFFSET 1.1472 -3.4929 2.6336
                    CHANNELS 6 Xposition Yposition Zposition Zrotation Xrotation Yrotation
                    JOINT RightFinger02
                    {
                      OFFSET 0.8229 -2.3 1.6571
                      CHANNELS 6 Xposition Yposition Zposition Zrotation Xrotation Yrotation
                      End Site
                      {
                        OFFSET 0.5822 -1.6914 1.1582
                      }
                    }
                  }
                }
              }
            }
          }
        }
      }
    }
  }
  JOINT RightHip
  {
    OFFSET -9.412 3.9771 -0.7758
    CHANNELS 6 Xposition Yposition Zposition Zrotation Xrotation Yrotation
    JOINT RightKnee
    {
      OFFSET -0.7531 -40.938 0
      CHANNELS 6 Xposition Yposition Zposition Zrotation Xrotation Yrotation
      JOINT RightAnkle
      {
        OFFSET 0 -40.1986 0
        CHANNELS 6 Xposition Yposition Zposition Zrotation Xrotation Yrotation
        JOINT RightToe
        {
          OFFSET 0 -4.4182 9.239
          CHANNELS 6 Xposition Yposition Zposition Zrotation Xrotation Yrotation
          End Site
          {
            OFFSET 0 0 6.1981
          }
        }
      }
    }
  }
  JOINT LeftHip
  {
    OFFSET 9.4119 3.9773 -0.7758
    CHANNELS 6 Xposition Yposition Zposition Zrotation Xrotation Yrotation
    JOINT LeftKnee
    {
      OFFSET 0.7532 -40.9383 0
      CHANNELS 6 Xposition Yposition Zposition Zrotation Xrotation Yrotation
      JOINT LeftAnkle
      {
        OFFSET 0 -40.1986 0
        CHANNELS 6 Xposition Yposition Zposition Zrotation Xrotation Yrotation
        JOINT LeftToe
        {
          OFFSET 0 -4.4182 9.239
          CHANNELS 6 Xposition Yposition Zposition Zrotation Xrotation Yrotation
          End Site
          {
            OFFSET 0 0 6.1981
          }
        }
      }
    }
  }
}
MOTION
Frames:	4
Frame Time:	0.0333333
42.3796 43.061 17.7258 179.993 59.0055 -30.0017 -5.32907e-015 8.7983 -4.7612 -0.831685 8.37503 4.08082 3.55271e-015 8.0291 0.4195 -2.30846 16.6669 8.42181 0 9.9351 -2.2114 -2.30847 16.6669 8.42182 0 22.3885 -0.4656 2.49769e-005 13.9933 -6.90402e-005 -0.0001 12.643 3.4389 -0.0996637 -0.159121 -0.000137718 2.2603 21.606 7.4023 -48.7944 1.10139 -14.5761 13.5163 -1.1332 -5.0146 71.7384 14.9471 -40.7213 -0.0995 -28.05 -0.2431 1.23216 -5.02234 -35.6867 0.0679 -23.3996 -0.1402 5.71352 -12.0295 13.1222 0.7932 -9.069 2.5189 3.61459e-006 -2.3331e-006 -7.12056e-006 -0.8272 -3.3923 0.5977 7.95139e-016 -6.36111e-015 -5.96354e-016 -0.5649 -2.3158 0.4082 1.59028e-015 -6.36111e-015 -5.96354e-016 0.9159 -9.2044 0.2193 3.61459e-006 -2.3331e-006 -7.12056e-006 0.0117 -4.1944 -0.0248 -0.0128056 0.002317 8.40227e-005 0.0071 -2.3249 -0.0142 7.95139e-016 -3.18055e-015 -1.59028e-015 0.6113 -8.7231 -2.0637 3.61459e-006 -2.3331e-006 -7.12056e-006 -0.1927 -3.8059 -0.2383 -0.0160662 0.00301144 0.000862627 -0.1091 -2.1688 -0.1362 -7.95139e-016 3.18055e-015 -1.98785e-015 -0.6151 -8.0947 -3.5641 3.61459e-006 -2.3331e-006 -7.12056e-006 -0.4882 -2.341 -0.6462 -0.0125767 0.0031253 0.00282892 -0.3575 -1.7167 -0.4742 -5.94627e-006 -3.26031e-006 1.59018e-006 -1.42 -1.8761 1.4223 3.61459e-006 -2.3331e-006 -7.12056e-006 -1.1471 -3.4929 2.6334 7.95139e-016 -6.36111e-015 -5.96354e-016 -0.823 -2.3 1.6571 1.59028e-015 -6.36111e-015 -5.96354e-016 -2.2603 21.606 7.4023 -17.4416 -1.08624 36.5075 -13.5187 -1.1334 -5.0155 -16.1373 -18.2072 -48.3307 0.0994 -28.0499 -0.2431 39.4277 -13.3162 29.0554 -0.0679 -23.3996 -0.1402 24.8375 9.39312 -34.2806 -0.7932 -9.0691 2.5189 2.20695e-032 -7.95139e-016 1.59028e-015 0.8272 -3.3923 0.5977 -3.24763e-007 6.49209e-007 -1.67517e-006 0.565 -2.3158 0.4082 -2.1504e-006 2.10031e-006 2.06675e-006 -0.916 -9.2044 0.2193 2.20695e-032 -7.95139e-016 1.59028e-015 -0.0117 -4.1944 -0.0248 0.0129188 0.00229243 -9.05384e-005 -0.0071 -2.3249 -0.0142 -9.47339e-006 2.19196e-005 1.85011e-006 -0.6113 -8.7231 -2.0637 2.20695e-032 -7.95139e-016 1.59028e-015 0.1927 -3.8059 -0.2383 0.0162782 0.0030112 -0.000867156 0.1091 -2.1688 -0.1362 1.90833e-014 2.14687e-014 1.43125e-014 0.6151 -8.0947 -3.564 2.20695e-032 -7.95139e-016 1.59028e-015 0.4882 -2.341 -0.6462 0.0145669 0.00368009 -0.00326438 0.3574 -1.7166 -0.4742 3.2464e-007 -1.57918e-005 1.67519e-006 1.4199 -1.8761 1.4221 2.20695e-032 -7.95139e-016 1.59028e-015 1.1472 -3.4929 2.6336 -3.24763e-007 6.49209e-007 -1.67517e-006 0.8229 -2.3 1.6571 -2.1504e-006 2.10031e-006 2.06675e-006 -9.412 3.9771 -0.7758 -82.9496 -36.6428 -69.7047 -0.7531 -40.938 0 -125.04 68.0697 153.619 1.06581e-014 -40.1986 1.42109e-014 -25.8688 5.10227 4.51521 0 -4.4182 9.23901 -6.36111e-015 -3.18055e-015 -5.56597e-015 9.4119 3.9773 -0.7758 62.944 -49.7454 63.7841 0.7532 -40.9383 -3.55271e-015 3.02395 17.0352 -0.406585 -7.10543e-015 -40.1986 0 2.82321 -0.0728282 0.148771 0 -4.4182 9.239 -8.36634e-007 -6.41577e-007 5.7361e-008 
42.376 43.0596 17.7192 179.993 59.0055 -30.0017 -3.55271e-015 8.7983 -4.7612 -0.862344 8.47138 4.07775 -3.55271e-015 8.0291 0.4195 -2.37861 16.857 8.42501 3.55271e-015 9.9351 -2.2114 -2.37862 16.857 8.42504 1.06581e-014 22.3885 -0.4656 2.05757e-005 13.9934 -6.11336e-005 -0.0001 12.643 3.4389 -0.0996643 -0.159115 -0.000138785 2.2603 21.606 7.4023 -47.9252 0.969487 -14.9056 13.5163 -1.1332 -5.0146 70.7858 14.9048 -40.5261 -0.0995 -28.05 -0.2431 1.26387 -5.23579 -35.685 0.0679 -23.3996 -0.1402 5.78729 -11.8229 13.3319 0.7932 -9.069 2.5189 -1.33072e-005 1.20586e-005 3.95023e-006 -0.8272 -3.3923 0.5977 9.17807e-006 2.54681e-007 -5.38776e-007 -0.5649 -2.3158 0.4082 -7.95139e-016 0 2.98177e-015 0.9159 -9.2044 0.2193 -1.33072e-005 1.20586e-005 3.95023e-006 0.0117 -4.1944 -0.0248 -0.0128224 0.00232619 7.51646e-005 0.0071 -2.3249 -0.0142 -7.95139e-016 0 3.97569e-016 0.6113 -8.7231 -2.0637 -1.33072e-005 1.20586e-005 3.95023e-006 -0.1927 -3.8059 -0.2383 -0.0160774 0.00300889 0.000858582 -0.1091 -2.1688 -0.1362 7.95139e-016 6.36111e-015 2.78299e-015 -0.6151 -8.0947 -3.5641 -1.33072e-005 1.20586e-005 3.95023e-006 -0.4882 -2.341 -0.6462 -0.0126172 0.00313137 0.00282952 -0.3575 -1.7167 -0.4742 -9.86255e-008 -3.04566e-006 -6.43281e-007 -1.42 -1.8761 1.4223 -1.33072e-005 1.20586e-005 3.95023e-006 -1.1471 -3.4929 2.6334 9.17807e-006 2.54681e-007 -5.38776e-007 -0.823 -2.3 1.6571 -7.95139e-016 0 2.98177e-015 -2.2603 21.606 7.4023 -17.6531 -1.58768 36.2567 -13.5187 -1.1334 -5.0155 -16.0161 -18.2194 -48.2853 0.0994 -28.0499 -0.2431 39.5614 -13.3678 29.0952 -0.0679 -23.3996 -0.1402 24.927 8.77084 -34.2938 -0.7932 -9.0691 2.5189 -7.98551e-006 1.91711e-005 -3.49514e-006 0.8272 -3.3923 0.5977 7.98551e-006 -1.89238e-005 3.49515e-006 0.565 -2.3158 0.4082 -1.01325e-005 2.37911e-005 -1.40997e-006 -0.916 -9.2044 0.2193 -7.98551e-006 1.91711e-005 -3.49514e-006 -0.0117 -4.1944 -0.0248 0.0129488 0.00231794 -8.08046e-005 -0.0071 -2.3249 -0.0142 -7.64561e-006 5.12399e-006 -1.82325e-006 -0.6113 -8.7231 -2.0637 -7.98551e-006 1.91711e-005 -3.49514e-006 0.1927 -3.8059 -0.2383 0.0163833 0.00303939 -0.000864585 0.1091 -2.1688 -0.1362 -2.91835e-006 -1.24266e-006 -2.79035e-006 0.6151 -8.0947 -3.564 -7.98551e-006 1.91711e-005 -3.49514e-006 0.4882 -2.341 -0.6462 0.0145614 0.00367468 -0.00324643 0.3574 -1.7166 -0.4742 -3.16491e-006 -2.19464e-006 -2.93153e-006 1.4199 -1.8761 1.4221 -7.98551e-006 1.91711e-005 -3.49514e-006 1.1472 -3.4929 2.6336 7.98551e-006 -1.89238e-005 3.49515e-006 0.8229 -2.3 1.6571 -1.01325e-005 2.37911e-005 -1.40997e-006 -9.412 3.9771 -0.7758 -82.6083 -36.4179 -69.4505 -0.7531 -40.938 0 -124.707 68.0254 153.321 0 -40.1986 -1.42109e-014 -25.8637 5.11329 4.51598 0 -4.4182 9.239 1.49498e-006 -3.95616e-007 5.93407e-007 9.4119 3.9773 -0.7758 62.9417 -49.7472 63.7827 0.7532 -40.9383 -3.55271e-015 3.02332 17.0246 -0.406096 0 -40.1986 0 2.82594 -0.0627548 0.148417 7.10543e-015 -4.4182 9.239 -1.602e-006 -6.23935e-007 6.57267e-008 
42.3723 43.0581 17.7126 179.993 59.0055 -30.0017 0 8.7983 -4.7612 -0.892917 8.56765 4.07446 3.55271e-015 8.0291 0.4195 -2.44866 17.0471 8.42786 0 9.9351 -2.2114 -2.44866 17.0471 8.42788 0 22.3885 -0.4656 2.22461e-005 13.9934 -5.84497e-005 -0.0001 12.643 3.4389 -0.0996647 -0.159121 -0.000139565 2.2603 21.606 7.4023 -47.0569 0.832634 -15.2329 13.5163 -1.1332 -5.0146 69.8338 14.8594 -40.3318 -0.0995 -28.05 -0.2431 1.29554 -5.44927 -35.6832 0.0679 -23.3996 -0.1402 5.8602 -11.6161 13.5411 0.7932 -9.069 2.5189 -4.85171e-006 7.39023e-006 -1.58164e-006 -0.8272 -3.3923 0.5977 -7.95139e-016 3.18055e-015 -1.59028e-015 -0.5649 -2.3158 0.4082 4.38656e-006 5.26487e-006 9.1193e-006 0.9159 -9.2044 0.2193 -4.85171e-006 7.39023e-006 -1.58164e-006 0.0117 -4.1944 -0.0248 -0.012848 0.00234294 9.1632e-005 0.0071 -2.3249 -0.0142 5.7441e-006 -2.25652e-006 -2.88665e-006 0.6113 -8.7231 -2.0637 -4.85171e-006 7.39023e-006 -1.58164e-006 -0.1927 -3.8059 -0.2383 -0.0160554 0.00301296 0.000860535 -0.1091 -2.1688 -0.1362 -6.25211e-007 -3.49871e-006 -4.35361e-006 -0.6151 -8.0947 -3.5641 -4.85171e-006 7.39023e-006 -1.58164e-006 -0.4882 -2.341 -0.6462 -0.0125802 0.00313741 0.00283282 -0.3575 -1.7167 -0.4742 1.78477e-006 -2.0769e-006 -8.93754e-006 -1.42 -1.8761 1.4223 -4.85171e-006 7.39023e-006 -1.58164e-006 -1.1471 -3.4929 2.6334 -7.95139e-016 3.18055e-015 -1.59028e-015 -0.823 -2.3 1.6571 4.38656e-006 5.26487e-006 9.1193e-006 -2.2603 21.606 7.4023 -17.8668 -2.08815 36.004 -13.5187 -1.1334 -5.0155 -15.8948 -18.2315 -48.2399 0.0994 -28.0499 -0.2431 39.6951 -13.4194 29.1352 -0.0679 -23.3996 -0.1402 25.0162 8.14865 -34.3061 -0.7932 -9.0691 2.5189 4.41391e-032 -3.18055e-015 7.95139e-016 0.8272 -3.3923 0.5977 6.36111e-015 -7.95139e-016 -0 0.565 -2.3158 0.4082 1.59028e-014 -7.95139e-016 -7.95139e-016 -0.916 -9.2044 0.2193 4.41391e-032 -3.18055e-015 7.95139e-016 -0.0117 -4.1944 -0.0248 0.0129895 0.00233596 -8.73762e-005 -0.0071 -2.3249 -0.0142 6.36111e-015 -1.59028e-015 -7.95139e-016 -0.6113 -8.7231 -2.0637 4.41391e-032 -3.18055e-015 7.95139e-016 0.1927 -3.8059 -0.2383 0.0163391 0.00304912 -0.000878649 0.1091 -2.1688 -0.1362 -6.36111e-015 3.18055e-015 1.59028e-015 0.6151 -8.0947 -3.564 4.41391e-032 -3.18055e-015 7.95139e-016 0.4882 -2.341 -0.6462 0.0145984 0.00366925 -0.00327024 0.3574 -1.7166 -0.4742 -4.79216e-006 1.67477e-005 -5.20276e-007 1.4199 -1.8761 1.4221 4.41391e-032 -3.18055e-015 7.95139e-016 1.1472 -3.4929 2.6336 6.36111e-015 -7.95139e-016 -0 0.8229 -2.3 1.6571 1.59028e-014 -7.95139e-016 -7.95139e-016 -9.412 3.9771 -0.7758 -82.269 -36.1922 -69.1985 -0.7531 -40.938 1.77636e-015 -124.376 67.9805 153.025 7.10543e-015 -40.1986 -1.42109e-014 -25.8586 5.1243 4.51674 1.42109e-014 -4.4182 9.239 -3.18055e-015 -3.18055e-015 4.77083e-015 9.4119 3.9773 -0.7758 62.9382 -49.7492 63.7802 0.7532 -40.9383 0 3.02326 17.0131 -0.405581 0 -40.1986 0 2.8287 -0.0523641 0.148046 0 -4.4182 9.239 -2.49804e-006 -2.20831e-007 -4.10049e-008 
42.3686 43.0567 17.706 179.993 59.0055 -30.0017 0 8.7983 -4.7612 -0.923453 8.66393 4.07088 3.55271e-015 8.0291 0.4195 -2.51859 17.2371 8.43033 -7.10543e-015 9.9351 -2.2114 -2.5186 17.2371 8.43035 7.10543e-015 22.3885 -0.4656 2.64107e-005 13.9933 -7.21616e-005 -0.0001 12.643 3.4389 -0.0996612 -0.159128 -0.000138272 2.2603 21.606 7.4023 -46.1898 0.690877 -15.558 13.5163 -1.1332 -5.0146 68.8826 14.8107 -40.1384 -0.0995 -28.05 -0.2431 1.32713 -5.66254 -35.6813 0.0679 -23.3996 -0.1402 5.93231 -11.409 13.7499 0.7932 -9.069 2.5189 -2.38542e-015 -6.36111e-015 -0 -0.8272 -3.3923 0.5977 -6.62086e-032 -3.18055e-015 -1.19271e-015 -0.5649 -2.3158 0.4082 7.95139e-016 -6.36111e-015 -1.19271e-015 0.9159 -9.2044 0.2193 -2.38542e-015 -6.36111e-015 -0 0.0117 -4.1944 -0.0248 -0.01284 0.00232349 8.51142e-005 0.0071 -2.3249 -0.0142 -7.95139e-016 3.18055e-015 -3.97569e-016 0.6113 -8.7231 -2.0637 -2.38542e-015 -6.36111e-015 -0 -0.1927 -3.8059 -0.2383 -0.0160252 0.00298392 0.000845396 -0.1091 -2.1688 -0.1362 9.80681e-006 6.73159e-006 3.79508e-006 -0.6151 -8.0947 -3.5641 -2.38542e-015 -6.36111e-015 -0 -0.4882 -2.341 -0.6462 -0.0125872 0.00313406 0.0028302 -0.3575 -1.7167 -0.4742 -2.38542e-015 -2.22639e-014 1.39149e-015 -1.42 -1.8761 1.4223 -2.38542e-015 -6.36111e-015 -0 -1.1471 -3.4929 2.6334 -6.62086e-032 -3.18055e-015 -1.19271e-015 -0.823 -2.3 1.6571 7.95139e-016 -6.36111e-015 -1.19271e-015 -2.2603 21.606 7.4023 -18.0827 -2.58762 35.7494 -13.5187 -1.1334 -5.0155 -15.7736 -18.2435 -48.1945 0.0994 -28.0499 -0.2431 39.8289 -13.4708 29.1753 -0.0679 -23.3996 -0.1402 25.1051 7.52653 -34.3173 -0.7932 -9.0691 2.5189 -7.27281e-006 1.72042e-006 -2.01125e-008 0.8272 -3.3923 0.5977 -1.32417e-031 1.59028e-015 4.77083e-015 0.565 -2.3158 0.4082 5.44183e-006 6.85618e-008 2.28108e-006 -0.916 -9.2044 0.2193 -7.27281e-006 1.72042e-006 -2.01125e-008 -0.0117 -4.1944 -0.0248 0.0129558 0.00230904 -7.93159e-005 -0.0071 -2.3249 -0.0142 -3.18055e-015 1.59028e-015 1.59028e-015 -0.6113 -8.7231 -2.0637 -7.27281e-006 1.72042e-006 -2.01125e-008 0.1927 -3.8059 -0.2383 0.0163239 0.00302085 -0.000877272 0.1091 -2.1688 -0.1362 -9.54166e-015 1.74931e-014 1.59028e-014 0.6151 -8.0947 -3.564 -7.27281e-006 1.72042e-006 -2.01125e-008 0.4882 -2.341 -0.6462 0.0145851 0.00367427 -0.00326045 0.3574 -1.7166 -0.4742 -3.30128e-006 6.85978e-006 -4.40307e-006 1.4199 -1.8761 1.4221 -7.27281e-006 1.72042e-006 -2.01125e-008 1.1472 -3.4929 2.6336 -1.32417e-031 1.59028e-015 4.77083e-015 0.8229 -2.3 1.6571 5.44183e-006 6.85618e-008 2.28108e-006 -9.412 3.9771 -0.7758 -81.932 -35.9651 -68.949 -0.7531 -40.938 -3.55272e-015 -124.045 67.9349 152.73 0 -40.1986 0 -25.8534 5.13519 4.51748 0 -4.4182 9.23901 -1.3082e-006 5.02816e-007 -3.35532e-006 9.4119 3.9773 -0.7758 62.935 -49.7515 63.7781 0.7532 -40.9383 -1.77636e-015 3.02328 17.0021 -0.405126 0 -40.1986 -7.10543e-015 2.83148 -0.0422008 0.147703 -7.10543e-015 -4.4182 9.23901 -8.33668e-007 -2.15261e-007 4.08916e-009 
